<?xml version="1.0" encoding="utf-8"?>
<!-- Generator: Adobe Illustrator 24.1.2, SVG Export Plug-In . SVG Version: 6.00 Build 0)  -->
<svg version="1.1" id="Layer_1" xmlns="http://www.w3.org/2000/svg" xmlns:xlink="http://www.w3.org/1999/xlink" x="0px" y="0px" viewBox="0 0 818 229.3" style="enable-background:new 0 0 818 229.3;" xml:space="preserve"><style type="text/css">.st0{stroke:#FFFFFF;stroke-width:33;stroke-miterlimit:10;}</style><g id="Layer_2_1_"><g id="Capa_1"><path class="st0" d="M-198.3-356c-58.4,0-105.7,47.3-105.7,105.7s47.3,105.7,105.7,105.7S-92.7-192-92.7-250.3 C-92.7-308.7-140-355.9-198.3-356z"/><path class="st0" d="M101.2-356C42.8-356-4.5-308.7-4.5-250.3s47.3,105.7,105.7,105.6c58.3,0,105.6-47.3,105.6-105.7 C206.8-308.7,159.5-355.9,101.2-356z"/><path class="st0" d="M390.3-356c-58.4,0-105.7,47.3-105.7,105.7S332-144.7,390.3-144.7S496-192,496-250.3c0,0,0,0,0,0 C495.9-308.7,448.7-355.9,390.3-356z"/></g></g></svg>
