<svg xmlns="http://www.w3.org/2000/svg" width="682.7" height="682.7" version="1.0" viewBox="0 0 512 512"><path d="M154 60c-27 6-50 25-60 49-5 12-6 20-6 35 1 11 1 14 4 22 8 22 22 38 43 49 12 5 19 7 35 7s22-2 36-8c16-9 29-21 37-37 5-12 7-19 8-33 2-37-21-70-59-82-5-2-9-2-20-3l-18 1zM357 101c-9 3-12 9-12 18 1 8 4 13 10 16l70 2 72-1c6-1 10-4 13-9 3-6 2-14-1-19-6-8-1-8-79-8l-73 1zM355 198c-13 7-13 26 0 32 4 2 9 2 74 2 64 0 69 0 73-2s6-4 9-9c3-8 0-17-7-22l-3-3h-71c-67 0-72 0-75 2zM153 267A170 170 0 0 0 2 418c-3 21-1 30 9 34l159 1c153 0 155 0 159-2 8-4 10-10 9-27a169 169 0 0 0-185-157zM357 293c-9 2-12 8-12 18 1 7 4 12 10 15 3 1 7 2 74 2 66 0 70-1 73-2 8-4 12-14 9-23-1-5-7-10-12-11l-71-1c-55 0-68 0-71 2z"/></svg>