<svg xmlns="http://www.w3.org/2000/svg" width="682.7" height="682.7" version="1.0" viewBox="0 0 512 512"><path d="M82 2C64 5 47 19 39 35c-12 26-8 54 12 74 25 25 65 25 90 0s25-65 0-90A64 64 0 0 0 82 2zM242 2c-18 3-35 17-43 33-9 19-9 39 0 58a64 64 0 0 0 119-42c-7-35-41-57-76-50zM402 2c-18 3-35 17-43 33-9 19-9 39 0 58a64 64 0 0 0 119-42c-7-35-41-57-76-50zM37 161c-9 3-15 9-19 18-3 5-3 11-11 82-7 77-7 78-5 81l5 7c3 2 4 3 15 3h12l6 52c8 58 8 59 17 67s10 9 39 9 31-1 39-9c8-7 9-11 14-50l6-39c0-3 0-4-5-6-10-6-19-19-21-32a7007 7007 0 0 1 14-160l4-15c3-6 3-8 2-8a1386 1386 0 0 0-112 0zM197 161c-9 3-15 9-19 18-3 5-3 11-11 82-7 77-7 78-5 81l5 7c3 2 4 3 15 3h12l6 68c7 63 7 68 10 73 3 7 9 13 16 16 4 2 6 3 30 3s26-1 30-3c7-3 13-9 16-16 3-5 3-10 10-73l7-68h11c12 0 12-1 16-4 7-6 7-1-1-87-8-71-8-77-11-82-3-7-9-13-16-16-4-2-5-2-60-3l-61 1zM362 161l2 5 3 11 10 82c8 85 8 85 2 97-3 8-10 16-17 20l-5 2 11 78c2 9 9 17 18 21 4 2 6 2 30 2 29 1 31 0 39-8 9-8 9-9 17-67l6-52h12c11 0 12-1 15-3l6-7c1-4 1-4-6-81-8-71-8-77-11-82-3-7-9-13-16-16-4-2-5-2-59-3l-57 1z"/></svg>