<svg xmlns="http://www.w3.org/2000/svg" width="682.7" height="682.7" version="1.0" viewBox="0 0 512 512"><path d="M244 18c-25 6-41 33-34 57 6 26 32 42 58 35 25-6 41-32 35-57-7-26-34-42-59-35zM226 130c-38 8-61 52-44 85 6 11 18 20 31 23 8 3 78 3 87 0 21-5 36-25 36-47 0-23-14-46-35-56-13-6-19-7-45-7-16 0-26 1-30 2zM137 165a182 182 0 0 0-46 59c-5 9-6 12-6 16 0 12 12 19 23 14 4-2 5-4 11-16 9-17 15-26 29-40 12-13 13-15 12-23-1-4-5-9-9-11s-11-1-14 1zM360 165c-6 4-9 10-8 17l12 16c14 14 21 23 29 40 6 13 7 14 11 16 11 5 23-2 23-14 0-9-14-35-28-52-8-9-19-21-23-23-4-3-11-3-16 0zM84 274c-25 6-41 33-34 58 6 25 32 41 58 35 25-7 41-33 35-58-7-26-34-42-59-35zM404 274c-25 6-41 33-34 58 6 25 32 41 58 35 25-7 41-33 35-58-7-26-34-42-59-35zM66 386c-38 8-61 52-44 85 6 11 18 20 31 24 8 2 78 2 87 0 21-6 36-26 36-47 0-24-14-47-35-57-13-6-19-7-45-7-16 0-26 1-30 2zM386 386c-38 8-61 52-44 85 6 11 18 20 31 24 8 2 78 2 87 0 21-6 36-26 36-47 0-24-14-47-35-57-13-6-19-7-45-7-16 0-26 1-30 2zM199 449c-11 5-13 19-5 27 5 4 23 9 44 11s51 0 70-6c11-4 15-9 15-17 0-11-10-18-20-15l-16 4c-22 5-56 3-75-4h-13z"/></svg>