<svg xmlns="http://www.w3.org/2000/svg" viewBox="0 0 66.78 27.87"><defs><style>.cls-1,.cls-2,.cls-3{fill:#fff;}.cls-2{font-size:12px;font-family:Alexandria-Regular, Alexandria;}.cls-3{font-size:4.33px;font-family:Alexandria-Thin, Alexandria;font-weight:200;}</style></defs><g id="Layer_2" data-name="Layer 2"><g id="Layer_1-2" data-name="Layer 1"><path class="cls-1" d="M50.23,16.29c-.23-.85-.37-1.6-.64-2.3-.58-1.54-1.24-3-1.84-4.57a4.71,4.71,0,0,1,.63-4.67,15,15,0,0,1,2.83-2.57.34.34,0,0,1,.31,0,30.33,30.33,0,0,1,2.72,2.46,4.31,4.31,0,0,1,.81,4.54c-.36,1-.83,2-1.21,3.06a30,30,0,0,0-1.08,3.15c-.24.94-.33.88.72.91.46,0,.68-.12.69-.59a1.33,1.33,0,0,1,.13-.51c.55-1.43,1.15-2.84,1.67-4.28a12.71,12.71,0,0,0,.77-2.72,6.18,6.18,0,0,0-2.16-5.39c-1-1-2.16-1.86-3.26-2.81-1.22,1.11-2.5,2.25-3.73,3.44A5.58,5.58,0,0,0,46.25,5.7a7,7,0,0,0,.38,5,27.23,27.23,0,0,1,2,5.4.33.33,0,0,0,.24.22C49.3,16.3,49.7,16.29,50.23,16.29Zm-3.28,0a3.06,3.06,0,0,0,0-.43,10.59,10.59,0,0,0-2.25-5,5,5,0,0,0-5.07-2,4.68,4.68,0,0,0-3.52,5.59c.33-.06.65-.15,1-.19s.41-.19.35-.52a3.35,3.35,0,0,1,0-.77,3.18,3.18,0,0,1,3.74-2.7,4.36,4.36,0,0,1,2.68,1.92,9.41,9.41,0,0,1,1.56,3.65c0,.2,0,.46.33.47S46.55,16.31,47,16.31Zm8.71,0h1.2a.36.36,0,0,0,.41-.35,4.29,4.29,0,0,1,.16-.71,7.87,7.87,0,0,1,2.48-4.22,3.21,3.21,0,0,1,5.36,2,11.31,11.31,0,0,1,.06,1.17l1.32.29a3.87,3.87,0,0,0,0-1.82A4.68,4.68,0,0,0,59,9.93a8.86,8.86,0,0,0-2.63,4C56.07,14.69,55.89,15.47,55.66,16.32Zm-3,4.37a8,8,0,0,0,1,2.92.75.75,0,0,1,0,.62,5.87,5.87,0,0,1-2.12,1.93.63.63,0,0,1-.52,0A6.17,6.17,0,0,1,49,24.26a.48.48,0,0,1,0-.59,14.72,14.72,0,0,0,.72-1.5c.17-.46.27-.94.42-1.47-.46,0-.83,0-1.19,0a.35.35,0,0,0-.4.31,9.1,9.1,0,0,1-1.21,2.56.72.72,0,0,0,0,.59,7.51,7.51,0,0,0,3.88,3.67.5.5,0,0,0,.38,0,7.61,7.61,0,0,0,4-3.79.5.5,0,0,0,0-.4A8.35,8.35,0,0,1,54.19,21a.42.42,0,0,0-.3-.25C53.5,20.67,53.11,20.69,52.69,20.69Zm-1.34-1.51h8.12c.78,0,.78,0,.76-.79,0-.58,0-.58-.59-.58H43.36c-.86,0-.84,0-.87.87,0,.43.13.52.53.51Z"/><path class="cls-1" d="M50.23,16.29c-.53,0-.93,0-1.33,0a.33.33,0,0,1-.24-.22,27.23,27.23,0,0,0-2-5.4,7,7,0,0,1-.38-5,5.58,5.58,0,0,1,1.34-2.26C48.82,2.25,50.1,1.11,51.32,0c1.1,1,2.21,1.85,3.26,2.81A6.18,6.18,0,0,1,56.74,8.2,12.71,12.71,0,0,1,56,10.92c-.52,1.44-1.12,2.85-1.67,4.28a1.33,1.33,0,0,0-.13.51c0,.47-.23.61-.69.59-1,0-1,0-.72-.91a30,30,0,0,1,1.08-3.15c.38-1,.85-2,1.21-3.06a4.31,4.31,0,0,0-.81-4.54,30.33,30.33,0,0,0-2.72-2.46.34.34,0,0,0-.31,0,15,15,0,0,0-2.83,2.57,4.71,4.71,0,0,0-.63,4.67c.6,1.53,1.26,3,1.84,4.57C49.86,14.69,50,15.44,50.23,16.29Z"/><path class="cls-1" d="M47,16.31c-.4,0-.78,0-1.16,0s-.29-.27-.33-.47a9.41,9.41,0,0,0-1.56-3.65,4.36,4.36,0,0,0-2.68-1.92A3.18,3.18,0,0,0,37.48,13a3.35,3.35,0,0,0,0,.77c.06.33,0,.48-.35.52s-.66.13-1,.19a4.68,4.68,0,0,1,3.52-5.59,5,5,0,0,1,5.07,2,10.59,10.59,0,0,1,2.25,5A3.06,3.06,0,0,1,47,16.31Z"/><path class="cls-1" d="M55.66,16.32c.23-.85.41-1.63.66-2.38a8.86,8.86,0,0,1,2.63-4,4.68,4.68,0,0,1,7.74,2.72,3.87,3.87,0,0,1,0,1.82l-1.32-.29A11.31,11.31,0,0,0,65.27,13a3.21,3.21,0,0,0-5.36-2,7.87,7.87,0,0,0-2.48,4.22,4.29,4.29,0,0,0-.16.71.36.36,0,0,1-.41.35Z"/><path class="cls-1" d="M52.69,20.69c.42,0,.81,0,1.2,0a.42.42,0,0,1,.3.25,8.35,8.35,0,0,0,1.31,2.7.5.5,0,0,1,0,.4,7.61,7.61,0,0,1-4,3.79.5.5,0,0,1-.38,0,7.51,7.51,0,0,1-3.88-3.67.72.72,0,0,1,0-.59A9.1,9.1,0,0,0,48.52,21a.35.35,0,0,1,.4-.31c.36,0,.73,0,1.19,0-.15.53-.25,1-.42,1.47a14.72,14.72,0,0,1-.72,1.5.48.48,0,0,0,0,.59,6.17,6.17,0,0,0,2.11,1.89.63.63,0,0,0,.52,0,5.87,5.87,0,0,0,2.12-1.93.75.75,0,0,0,0-.62A8,8,0,0,1,52.69,20.69Z"/><path class="cls-1" d="M51.35,19.18H43c-.4,0-.54-.08-.53-.51,0-.87,0-.87.87-.87H59.64c.58,0,.58,0,.59.58,0,.79,0,.79-.76.79Z"/><text class="cls-2" transform="translate(0 19.32)">Scout</text><text class="cls-3" transform="translate(25 23.67)">Hub</text></g></g></svg>